<?xml version="1.0" encoding="utf-8"?><svg version="1.1" id="Calque_1" xmlns="http://www.w3.org/2000/svg" xmlns:xlink="http://www.w3.org/1999/xlink" x="0px" y="0px" viewBox="-60 349.8 490.7 94.2" style="enable-background:new -60 349.8 490.7 94.2;" xml:space="preserve"><style type="text/css">.st0{fill:#FFFFFF;}.st1{enable-background:new;}</style><polygon class="st0" points="-49.3,373.9 -15.6,444 -38.2,444 -60,396.8 "/><polygon points="-38.2,350 -15.6,350 -38.3,396.8 -49.3,373.9 "/><g class="st1"><path class="st0" d="M8.1,382.8c1.7,0,3.2,0.2,4.4,0.5c1.2,0.3,2.2,0.9,2.9,1.7c0.7,0.8,1.3,1.9,1.6,3.3c0.3,1.4,0.5,3.1,0.5,5.2v25.8H-6c-2.8,0-4.8-1-6-2.9c-1.3-1.9-1.9-4.6-1.9-8c0-3.6,0.6-6.4,1.9-8.2c1.2-1.9,3.3-2.8,6-2.8H9.8v-4.6c0-2.3-0.4-3.9-1.1-4.8c-0.7-0.9-2-1.4-3.8-1.4H-8.9v-3.8H8.1z M-0.3,401.3c-2.3,0-3.9,0.5-4.9,1.6c-1,1-1.4,2.9-1.4,5.4c0,2.5,0.4,4.3,1.2,5.5c0.8,1.2,2.3,1.7,4.3,1.7H9.8v-14.2H-0.3z"/><path class="st0" d="M44.2,382.8v-11.6h7.6v48.1H30.9c-1.6,0-3-0.2-4.2-0.6c-1.2-0.4-2.2-1.1-2.9-2c-0.8-1-1.3-2.2-1.7-3.8c-0.4-1.6-0.6-3.5-0.6-5.8v-12c0-2.3,0.2-4.2,0.5-5.8c0.3-1.6,0.9-2.8,1.6-3.8c0.8-1,1.7-1.7,2.9-2.1c1.2-0.4,2.6-0.6,4.3-0.6H44.2z M29.1,403.7c0,2.6,0.1,4.7,0.4,6.3c0.2,1.6,0.7,2.8,1.3,3.6s1.4,1.4,2.5,1.6c1,0.3,2.3,0.4,3.9,0.4h7.1v-28.8H34c-1.7,0-3,0.6-3.8,1.7c-0.8,1.1-1.1,3.1-1.1,5.9V403.7z"/><path class="st0" d="M85.5,382.8v3.8H71.9c-1.4,0-2.6,0.1-3.5,0.2c-0.9,0.2-1.6,0.5-2.1,1.1c-0.5,0.6-0.8,1.4-1,2.4c-0.2,1.1-0.3,2.5-0.3,4.4v24.6h-7.7v-25.5c0-7.4,4.4-11,13.2-11H85.5z"/><path class="st0" d="M110.1,382.8v32.7h10.9v3.8H91.5v-3.8h10.9v-28.8H91.5v-3.9H110.1z M110.1,371.3v5.8h-7.7v-5.8H110.1z"/><path class="st0" d="M149,382.8c5.1,0,7.6,3.6,7.6,10.8c0,7-2.5,10.4-7.6,10.4h-15.5v4c0,1.6,0.1,2.8,0.3,3.8c0.2,1,0.5,1.7,1,2.3c0.5,0.6,1.1,0.9,1.9,1.1c0.8,0.2,1.8,0.3,3,0.3H153v3.8h-18c-1.7,0-3.1-0.2-4.2-0.6s-2.1-1-2.9-1.9c-0.7-0.9-1.3-2-1.6-3.5c-0.4-1.5-0.5-3.3-0.5-5.5v-13.6c0-2.2,0.2-4,0.5-5.5c0.4-1.5,0.9-2.7,1.7-3.5c0.8-0.9,1.7-1.5,2.9-1.9c1.2-0.4,2.6-0.6,4.3-0.6H149z M133.4,400.3h11.9c0.9,0,1.6-0.1,2.3-0.3s1.1-0.6,1.5-1.1c0.4-0.5,0.7-1.2,0.8-2c0.2-0.8,0.3-1.9,0.3-3.2s-0.1-2.4-0.2-3.3c-0.2-0.9-0.4-1.6-0.8-2.2c-0.4-0.6-0.9-0.9-1.5-1.2c-0.6-0.2-1.4-0.3-2.3-0.3h-7c-1.7,0-3,0.6-3.7,1.7c-0.8,1.1-1.2,3.1-1.2,5.9V400.3z"/><path class="st0" d="M182,382.8c1.7,0,3.2,0.2,4.4,0.5c1.2,0.3,2.2,0.9,2.9,1.7c0.7,0.8,1.3,1.9,1.6,3.3s0.5,3.1,0.5,5.2v25.9h-7.5v-25.1c0-1.4-0.1-2.7-0.3-3.6s-0.5-1.8-0.9-2.4c-0.4-0.6-0.9-1-1.5-1.3c-0.6-0.2-1.3-0.4-2.2-0.4h-10.7v32.7h-7.6v-36.5H182z"/><path class="st0" d="M225.7,373.3l-24.8,46h-5l25-46H225.7z"/></g><polygon class="st0" points="420,419.9 386.3,349.8 409,349.8 430.7,397 "/><polygon points="409,443.8 386.3,443.8 409,397 420,419.9 "/><g class="st1"><path class="st0" d="M243.3,374.3l-24.8,46h-5l25-46H243.3z"/><path class="st0" d="M265.5,374.3v9.5h12.6v3.8h-12.6v22.4c0,1.3,0.1,2.4,0.2,3.3c0.1,0.8,0.5,1.5,0.9,2c0.5,0.5,1.2,0.8,2.2,1c1,0.2,2.2,0.3,3.9,0.3v3.8h-5.5c-2,0-3.6-0.1-4.8-0.4s-2.2-0.7-2.8-1.4c-0.7-0.7-1.1-1.6-1.4-2.8c-0.2-1.2-0.3-2.7-0.3-4.5v-23.6h-9.4v-3.8h9.4v-9.5H265.5z"/><path class="st0" d="M305.9,383.8c5.1,0,7.6,3.6,7.6,10.8c0,7-2.5,10.4-7.6,10.4h-15.5v4c0,1.6,0.1,2.8,0.3,3.8c0.2,1,0.5,1.7,1,2.3s1.1,0.9,1.9,1.1c0.8,0.2,1.8,0.3,3,0.3H310v3.8h-18c-1.7,0-3.1-0.2-4.2-0.6c-1.2-0.4-2.1-1-2.9-1.9c-0.7-0.9-1.3-2-1.6-3.5c-0.4-1.5-0.5-3.3-0.5-5.5v-13.6c0-2.2,0.2-4,0.5-5.5s0.9-2.7,1.7-3.5c0.8-0.9,1.7-1.5,2.9-1.9c1.2-0.4,2.6-0.6,4.3-0.6H305.9z M290.4,401.3h11.9c0.9,0,1.6-0.1,2.3-0.3s1.1-0.6,1.5-1.1c0.4-0.5,0.7-1.2,0.8-2c0.2-0.8,0.3-1.9,0.3-3.2s-0.1-2.4-0.2-3.3c-0.2-0.9-0.4-1.6-0.8-2.2c-0.4-0.6-0.9-0.9-1.5-1.2c-0.6-0.2-1.4-0.3-2.3-0.3h-7c-1.7,0-3,0.6-3.7,1.7c-0.8,1.1-1.2,3.1-1.2,5.9V401.3z"/><path class="st0" d="M347.4,383.8v3.8h-16.6c-0.9,0-1.6,0.1-2.3,0.4c-0.6,0.3-1.1,0.7-1.5,1.3c-0.4,0.6-0.7,1.4-0.8,2.3c-0.2,1-0.3,2.2-0.3,3.6v14.3c0,1.5,0.1,2.8,0.4,3.7c0.3,0.9,0.8,1.6,1.5,2.1s1.7,0.8,2.9,1s2.8,0.2,4.8,0.2h11.8v3.8h-19.9c-1.7,0-3.1-0.2-4.3-0.6c-1.2-0.4-2.1-1-2.9-1.9c-0.8-0.9-1.3-2.1-1.6-3.5c-0.3-1.5-0.5-3.3-0.5-5.5v-13.6c0-2.1,0.2-4,0.5-5.4c0.3-1.5,0.9-2.7,1.6-3.5c0.7-0.9,1.7-1.5,2.9-1.9c1.2-0.4,2.6-0.6,4.3-0.6H347.4z"/><path class="st0" d="M360,372.2v11.7h13.8c1.8,0,3.2,0.2,4.4,0.5c1.2,0.3,2.1,0.9,2.9,1.7c0.7,0.8,1.3,1.9,1.6,3.3c0.3,1.4,0.5,3.1,0.5,5.2v25.8h-7.6v-25.1c0-2.8-0.4-4.8-1.2-5.9c-0.8-1.1-2-1.7-3.7-1.7H360v32.7h-7.7v-48.1H360z"/></g></svg>
